<?xml version="1.0" ?><svg id="Bold" viewBox="0 0 24 24" xmlns="http://www.w3.org/2000/svg"><title/><path d="M17.5,0H6.5A6.51,6.51,0,0,0,0,6.5v11A6.51,6.51,0,0,0,6.5,24h11A6.51,6.51,0,0,0,24,17.5V6.5A6.51,6.51,0,0,0,17.5,0ZM12,17.5A5.5,5.5,0,1,1,17.5,12,5.5,5.5,0,0,1,12,17.5Zm6.5-11A1.5,1.5,0,1,1,20,5,1.5,1.5,0,0,1,18.5,6.5Z"/><radialGradient id="ig" r="150%" cx="30%" cy="107%">
    <stop stop-color="#fdf497" offset="0" />
    <stop stop-color="#fdf497" offset="0.05" />
    <stop stop-color="#fd5949" offset="0.45" />
    <stop stop-color="#d6249f" offset="0.6" />
    <stop stop-color="#285AEB" offset="0.9" />
  </radialGradient></svg>